:SAMPLES-PER-SECOND 30
:FULLY-SPECIFIED
:DEGREES
299
root  -23.08 5.91059 -17.5077 169.682 -2.9015 -172.589
RightUpLeg  -76.2299 -10.3738 2.44879
RightLeg  161.053 7.53276 -2.85986
RightFoot  -59.737 5.69179 10.4992
RightToes  -7.13428 -0.00792674 -0.0484388
Spine  30.8275 0.718529 4.92344
Spine1  48.5564 1.21976 6.29738
HEad  -94.7262 -4.7608 17.5513
LeftShoulder1  -1.94126e-019 -3.10601e-018 -2.51263e-017
LeftArm  38.3178 -69.6949 -132.417
LeftForeArm  28.0401 -5.72862 -0.992463
LeftHand  -0.505694 -0.630714 9.72607
RightShoulder  -4.96962e-017 0 -2.36833e-017
RightArm  -5.42541 77.5811 107.998
RightForeArm  59.2574 9.68111 1.53896
RightHand  0.310191 -7.30227 -19.563
LeftUpLeg  -81.7377 6.87689 18.9912
LeftLeg  164.036 -0.804544 0.29014
LeftFoot  -57.5985 -4.2957 -7.64413
LeftToes  -6.98527 2.03064e-006 1.83538e-008
300
root  -23.0814 5.91243 -17.4966 169.731 -2.90648 -172.64
RightUpLeg  -76.3572 -10.3614 2.39789
RightLeg  161.049 7.53508 -2.86136
RightFoot  -59.6644 5.6852 10.5023
RightToes  -7.15803 -0.00692687 -0.0473697
Spine  30.8403 0.694845 4.90981
Spine1  48.5706 1.13819 6.27178
HEad  -94.9184 -4.48857 17.3491
LeftShoulder1  -1.94126e-019 -3.10601e-018 -2.51263e-017
LeftArm  38.3523 -69.7509 -132.383
LeftForeArm  27.6729 -5.80999 -1.00735
LeftHand  -0.508051 -0.565093 9.65334
RightShoulder  -4.96962e-017 0 -2.36833e-017
RightArm  -5.15776 77.6646 108.617
RightForeArm  58.3476 8.79286 1.47441
RightHand  0.330498 -7.46358 -19.2169
LeftUpLeg  -81.8524 6.84804 18.878
LeftLeg  164.014 -0.877858 0.316688
LeftFoot  -57.5267 -4.3012 -7.66567
LeftToes  -6.87825 2.03064e-006 1.83538e-008
301
root  -23.074 5.90316 -17.4942 169.735 -2.8925 -172.692
RightUpLeg  -76.4448 -10.4042 2.36693
RightLeg  161.095 7.45245 -2.82042
RightFoot  -59.6351 5.64492 10.4378
RightToes  -7.26729 -0.00593874 -0.0463137
Spine  30.8532 0.702228 4.89545
Spine1  48.5915 1.13736 6.23928
HEad  -95.1697 -4.34229 17.3353
LeftShoulder1  -1.94126e-019 -3.10601e-018 -2.51263e-017
LeftArm  38.4893 -69.7775 -132.45
LeftForeArm  27.5932 -5.80976 -1.00758
LeftHand  -0.507153 -0.477637 9.67915
RightShoulder  -4.96962e-017 0 -2.36833e-017
RightArm  -5.42895 77.6721 108.416
RightForeArm  58.1192 8.03619 1.38317
RightHand  0.344283 -7.58192 -18.9398
LeftUpLeg  -81.9134 6.86026 18.851
LeftLeg  164.021 -0.931569 0.335746
LeftFoot  -57.4519 -4.31853 -7.70929
LeftToes  -6.91745 2.03064e-006 1.83538e-008
302
root  -23.0661 5.88326 -17.4948 169.725 -2.86877 -172.811
RightUpLeg  -76.365 -10.3887 2.28842
RightLeg  161.218 7.54659 -2.84033
RightFoot  -59.7227 5.73432 10.5763
RightToes  -7.89494 -0.00496874 -0.0452788
Spine  30.8502 0.72164 4.85352
Spine1  48.5919 1.17723 6.18234
HEad  -95.4497 -4.28922 17.4145
LeftShoulder1  -1.94126e-019 -3.10601e-018 -2.51263e-017
LeftArm  38.7632 -69.7947 -132.605
LeftForeArm  27.6799 -5.6661 -0.981578
LeftHand  -0.504131 -0.564603 9.80767
RightShoulder  -4.96962e-017 0 -2.36833e-017
RightArm  -5.65255 77.7134 108.065
RightForeArm  60.3362 7.13988 1.23182
RightHand  0.352262 -7.6271 -18.9699
LeftUpLeg  -81.9215 6.91325 18.8288
LeftLeg  164.058 -0.872804 0.314116
LeftFoot  -57.3988 -4.28281 -7.65288
LeftToes  -7.08261 2.03064e-006 1.83538e-008
303
root  -23.0539 5.86482 -17.4992 169.702 -2.85545 -172.893
RightUpLeg  -76.3889 -10.4169 2.27776
RightLeg  161.317 7.48519 -2.80026
RightFoot  -59.8082 5.72051 10.5349
RightToes  -7.75819 -0.00402317 -0.0442732
Spine  30.8665 0.758456 4.83434
Spine1  48.6189 1.22107 6.1665
HEad  -95.8722 -4.24358 17.6298
LeftShoulder1  -1.94126e-019 -3.10601e-018 -2.51263e-017
LeftArm  39.0182 -69.7961 -132.794
LeftForeArm  27.7607 -5.66553 -0.981434
LeftHand  -0.505841 -0.609089 9.75064
RightShoulder  -4.96962e-017 0 -2.36833e-017
RightArm  -6.19038 77.7319 107.281
RightForeArm  61.8676 6.29639 1.0795
RightHand  0.376626 -7.77543 -18.979
LeftUpLeg  -81.9088 6.95582 18.8424
LeftLeg  164.086 -0.866736 0.311479
LeftFoot  -57.3955 -4.29214 -7.67041
LeftToes  -7.20408 2.03064e-006 1.83538e-008
304
root  -23.0437 5.84652 -17.5044 169.655 -2.82335 -173.075
RightUpLeg  -76.3923 -10.3555 2.20322
RightLeg  161.425 7.51705 -2.79687
RightFoot  -59.9233 5.75561 10.5728
RightToes  -7.56937 -0.00310853 -0.0433052
Spine  30.9106 0.794609 4.77763
Spine1  48.678 1.23887 6.12424
HEad  -96.2413 -4.1575 17.7235
LeftShoulder1  -1.94126e-019 -3.10601e-018 -2.51263e-017
LeftArm  39.4486 -69.8661 -133.085
LeftForeArm  28.0335 -5.63537 -0.976383
LeftHand  -0.508894 -0.596274 9.6227
RightShoulder  -4.96962e-017 0 -2.36833e-017
RightArm  -6.76313 77.8238 106.508
RightForeArm  61.1871 5.27141 0.902482
RightHand  0.449677 -8.25267 -18.8014
LeftUpLeg  -81.7768 7.0437 18.8285
LeftLeg  164.098 -0.749331 0.269498
LeftFoot  -57.4116 -4.25811 -7.60586
LeftToes  -7.48906 2.03064e-006 1.83538e-008
305
root  -23.036 5.82873 -17.508 169.612 -2.84712 -173.182
RightUpLeg  -76.3768 -10.3607 2.17446
RightLeg  161.519 7.5803 -2.8082
RightFoot  -60.0136 5.79447 10.6219
RightToes  -7.34162 -0.00223109 -0.042383
Spine  30.9289 0.787082 4.76739
Spine1  48.6903 1.13039 6.16568
HEad  -96.4128 -4.04337 17.6161
LeftShoulder1  -1.94126e-019 -3.10601e-018 -2.51263e-017
LeftArm  39.6479 -69.9197 -133.149
LeftForeArm  28.2117 -5.65636 -0.979888
LeftHand  -0.508803 -0.64399 9.61185
RightShoulder  -4.96962e-017 0 -2.36833e-017
RightArm  -7.49237 77.843 105.597
RightForeArm  60.3653 4.16989 0.71198
RightHand  0.495263 -8.61875 -18.3502
LeftUpLeg  -81.7477 7.05317 18.8454
LeftLeg  164.123 -0.64694 0.23275
LeftFoot  -57.3734 -4.22967 -7.56019
LeftToes  -7.79227 2.03064e-006 1.83538e-008
306
root  -23.0354 5.81502 -17.5111 169.544 -2.84621 -173.334
RightUpLeg  -76.3413 -10.3451 2.02141
RightLeg  161.609 7.55324 -2.78348
RightFoot  -60.0941 5.80125 10.6174
RightToes  -6.93844 -0.00139734 -0.0415146
Spine  30.9472 0.770151 4.72509
Spine1  48.6968 0.982881 6.17949
HEad  -96.3406 -3.86087 17.3403
LeftShoulder1  -1.94126e-019 -3.10601e-018 -2.51263e-017
LeftArm  39.6663 -70.0162 -133.037
LeftForeArm  28.2825 -5.66831 -0.981939
LeftHand  -0.511504 -0.732305 9.50345
RightShoulder  -4.96962e-017 0 -2.36833e-017
RightArm  -7.56074 77.9171 105.156
RightForeArm  60.834 2.7767 0.466374
RightHand  0.503838 -8.76646 -17.8814
LeftUpLeg  -81.6852 7.07102 18.7352
LeftLeg  164.142 -0.638552 0.229537
LeftFoot  -57.3133 -4.22181 -7.55544
LeftToes  -7.94303 2.03064e-006 1.83538e-008
307
root  -23.0652 5.80853 -17.5153 169.302 -2.97385 -173.918
RightUpLeg  -76.0496 -10.379 1.07902
RightLeg  161.778 7.28281 -2.65021
RightFoot  -60.2295 5.79528 10.5797
RightToes  -7.02346 -0.000613601 -0.0407082
Spine  31.0924 0.68944 4.51657
Spine1  48.9009 0.840614 5.87904
HEad  -96.2085 -3.60504 16.9642
LeftShoulder1  -1.94126e-019 -3.10601e-018 -2.51263e-017
LeftArm  39.6333 -70.1483 -132.877
LeftForeArm  28.5143 -5.81611 -1.00782
LeftHand  -0.506995 -0.688197 9.61464
RightShoulder  -4.96962e-017 0 -2.36833e-017
RightArm  -5.11867 77.9059 105.197
RightForeArm  60.4374 1.85006 0.305487
RightHand  0.525504 -9.10261 -17.0103
LeftUpLeg  -81.3209 6.92215 17.7624
LeftLeg  164.071 -0.979179 0.351787
LeftFoot  -57.3289 -4.25733 -7.61772
LeftToes  -8.07153 2.03064e-006 1.83538e-008
308
root  -23.0655 5.82555 -17.5018 169.344 -3.0119 -173.969
RightUpLeg  -76.1876 -10.4852 0.961677
RightLeg  161.733 7.16988 -2.61181
RightFoot  -60.0342 5.71442 10.479
RightToes  -7.26943 0.000113755 -0.0399722
Spine  31.0602 0.649134 4.48429
Spine1  48.8128 0.639892 5.90842
HEad  -95.8909 -3.09839 16.5288
LeftShoulder1  -1.94126e-019 -3.10601e-018 -2.51263e-017
LeftArm  39.3225 -70.2079 -132.273
LeftForeArm  28.5349 -5.8871 -1.0206
LeftHand  -0.506517 -0.641534 9.57519
RightShoulder  -4.96962e-017 0 -2.36833e-017
RightArm  -3.9188 77.8541 105.452
RightForeArm  62.1147 0.58175 0.0775343
RightHand  0.474911 -8.88741 -16.4147
LeftUpLeg  -81.4728 6.88629 17.5983
LeftLeg  163.997 -1.06711 0.384671
LeftFoot  -57.2401 -4.2635 -7.64329
LeftToes  -7.41945 2.03064e-006 1.83538e-008
309
root  -23.093 5.82892 -17.4904 169.272 -3.12459 -174.515
RightUpLeg  -76.17 -10.558 0.0647484
RightLeg  161.859 6.83348 -2.46002
RightFoot  -59.9552 5.63894 10.3638
RightToes  -7.60929 0.000778348 -0.0393146
Spine  31.1262 0.57923 4.24048
Spine1  48.8863 0.53992 5.56737
HEad  -95.7356 -2.61548 16.1339
LeftShoulder1  -1.94126e-019 -3.10601e-018 -2.51263e-017
LeftArm  39.1321 -70.3378 -132.05
LeftForeArm  28.7594 -5.82042 -1.00853
LeftHand  -0.504642 -0.685159 9.60313
RightShoulder  -4.96962e-017 0 -2.36833e-017
RightArm  2.73831 77.5066 105.853
RightForeArm  59.6976 0.518772 0.0694621
RightHand  0.37886 -8.53603 -14.8063
LeftUpLeg  -81.3807 6.78267 16.5772
LeftLeg  163.88 -1.51787 0.549409
LeftFoot  -57.2633 -4.33627 -7.7724
LeftToes  -6.83791 2.03064e-006 1.83538e-008
310
root  -23.0936 5.83648 -17.4773 169.257 -3.02901 -174.775
RightUpLeg  -76.3254 -10.4852 -0.200622
RightLeg  161.877 6.70465 -2.40644
RightFoot  -59.822 5.59065 10.3061
RightToes  -7.71875 0.00137374 -0.0387436
Spine  31.1609 0.593179 4.08962
Spine1  48.9061 0.436769 5.4669
HEad  -95.6134 -2.30286 15.9873
LeftShoulder1  -1.94126e-019 -3.10601e-018 -2.51263e-017
LeftArm  38.699 -70.4549 -131.772
LeftForeArm  29.0563 -5.68552 -0.98425
LeftHand  -0.50451 -0.803197 9.58425
RightShoulder  -4.96962e-017 0 -2.36833e-017
RightArm  8.95766 77.3256 107.405
RightForeArm  59.5927 -0.0334603 -0.0290102
RightHand  0.314129 -8.20423 -13.9217
LeftUpLeg  -81.2823 6.89922 16.3138
LeftLeg  163.793 -1.5711 0.571275
LeftFoot  -57.1307 -4.29965 -7.72716
LeftToes  -7.22587 2.03064e-006 1.83538e-008
311
root  -23.0837 5.83047 -17.4716 169.247 -3.02229 -174.758
RightUpLeg  -76.3896 -10.5634 -0.162729
RightLeg  161.906 6.60346 -2.36255
RightFoot  -59.8038 5.53939 10.2204
RightToes  -7.72757 0.00189367 -0.0382674
Spine  31.1306 0.572362 4.02601
Spine1  48.8222 0.247768 5.50768
HEad  -95.4325 -2.27332 16.0493
LeftShoulder1  -1.94126e-019 -3.10601e-018 -2.51263e-017
LeftArm  38.3628 -70.4563 -131.307
LeftForeArm  29.0584 -5.54153 -0.959054
LeftHand  -0.499625 -0.716851 9.61969
RightShoulder  -4.96962e-017 0 -2.36833e-017
RightArm  10.8968 77.0617 108.855
RightForeArm  61.6422 -0.818629 -0.172368
RightHand  0.279852 -7.96916 -13.645
LeftUpLeg  -81.3677 6.85474 16.3622
LeftLeg  163.807 -1.65059 0.599564
LeftFoot  -57.0264 -4.32387 -7.78867
LeftToes  -7.46903 2.03064e-006 1.83538e-008
